# xmcd CD database file
# Copyright (C) 1996 Ti Kan
#
# Track frame offsets:
# 	205
# 	17155
# 	39135
# 	54007
# 	74342
# 	92390
# 	106617
# 	121020
# 	140757
# 	160640
# 	175237
#
# Disc length: 2497 seconds
#
# Revision: 1
# Processed by: cddbd v1.4b41PL1 Copyright (c) Steve Scherf et al.
# Submitted via: DiscPlay 3.4.1
#
DISCID=7809bf0b
DTITLE=The Legendary Blues Band - Keepin' the Blues Alive
DYEAR=1900
DGENRE=
TTITLE0=I Don't Wanna Know
TTITLE1=Stuck int eh Bottom
TTITLE2=I Love My Woman
TTITLE3=Cook Me
TTITLE4=Open Your Eyes
TTITLE5=Nobody Knows
TTITLE6=Without Her
TTITLE7=What's Wrong
TTITLE8=Shake It For Me
TTITLE9=Reach Way Back
TTITLE10=Steady Worried man
EXTD=
EXTT0=
EXTT1=
EXTT2=
EXTT3=
EXTT4=
EXTT5=
EXTT6=
EXTT7=
EXTT8=
EXTT9=
EXTT10=
PLAYORDER=
